<svg width="22" height="29" viewBox="0 0 22 29" fill="none" xmlns="http://www.w3.org/2000/svg">
<path d="M19.25 10.875H18.3333V7.25C18.3333 3.25163 15.0443 0 11 0C6.95567 0 3.66667 3.25163 3.66667 7.25V10.875H2.75C1.23444 10.875 0 12.0942 0 13.5938V26.2812C0 27.7808 1.23444 29 2.75 29H19.25C20.7656 29 22 27.7808 22 26.2812V13.5938C22 12.0942 20.7656 10.875 19.25 10.875ZM6.11111 7.25C6.11111 4.58442 8.30378 2.41667 11 2.41667C13.6962 2.41667 15.8889 4.58442 15.8889 7.25V10.875H6.11111V7.25ZM12.2222 20.2058V22.9583C12.2222 23.6253 11.6759 24.1667 11 24.1667C10.3241 24.1667 9.77778 23.6253 9.77778 22.9583V20.2058C9.05056 19.7865 8.55556 19.0155 8.55556 18.125C8.55556 16.7922 9.65189 15.7083 11 15.7083C12.3481 15.7083 13.4444 16.7922 13.4444 18.125C13.4444 19.0155 12.9494 19.7865 12.2222 20.2058Z" fill="#D2D2D2"/>
</svg>
